<?xml version="1.0" standalone="no"?>
<!DOCTYPE svg PUBLIC "-//W3C//DTD SVG 20010904//EN"
 "http://www.w3.org/TR/2001/REC-SVG-20010904/DTD/svg10.dtd">
<svg version="1.0" xmlns="http://www.w3.org/2000/svg"
 width="301.000000pt" height="301.000000pt" viewBox="0 0 301.000000 301.000000"
 preserveAspectRatio="xMidYMid meet">
<metadata>
Created by potrace 1.14, written by Peter Selinger 2001-2017
</metadata>
<g transform="translate(0.000000,301.000000) scale(0.100000,-0.100000)"
fill="#000000" stroke="none">
<path d="M1315 2984 c-357 -54 -660 -207 -898 -453 -375 -388 -506 -916 -355
-1426 35 -119 136 -331 206 -434 127 -186 337 -371 540 -474 244 -125 476
-175 746 -164 384 16 740 172 1011 441 303 302 472 753 435 1163 -32 356 -175
659 -429 914 -207 206 -451 338 -759 411 -68 15 -130 21 -277 23 -104 2 -203
1 -220 -1z"/>
</g>
</svg>
